<svg xmlns="http://www.w3.org/2000/svg" xmlns:xlink="http://www.w3.org/1999/xlink" width="600" height="400" viewBox="0 0 2400 1600">
<defs>
  <clipPath id="clip330">
    <rect x="0" y="0" width="2400" height="1600"></rect>
  </clipPath>
</defs>
<path clip-path="url(#clip330)" d="M0 1600 L2400 1600 L2400 0 L0 0  Z" fill="#282a36" fill-rule="evenodd" fill-opacity="1"></path>
<defs>
  <clipPath id="clip331">
    <rect x="480" y="0" width="1681" height="1600"></rect>
  </clipPath>
</defs>
<path clip-path="url(#clip330)" d="M219.033 1423.18 L2352.76 1423.18 L2352.76 123.472 L219.033 123.472  Z" fill="#30343b" fill-rule="evenodd" fill-opacity="1"></path>
<defs>
  <clipPath id="clip332">
    <rect x="219" y="123" width="2135" height="1301"></rect>
  </clipPath>
</defs>
<polyline clip-path="url(#clip332)" style="stroke:#f8f8f2; stroke-linecap:round; stroke-linejoin:round; stroke-width:2; stroke-opacity:0.1; fill:none" points="547.814,1423.18 547.814,123.472 "></polyline>
<polyline clip-path="url(#clip332)" style="stroke:#f8f8f2; stroke-linecap:round; stroke-linejoin:round; stroke-width:2; stroke-opacity:0.1; fill:none" points="950.403,1423.18 950.403,123.472 "></polyline>
<polyline clip-path="url(#clip332)" style="stroke:#f8f8f2; stroke-linecap:round; stroke-linejoin:round; stroke-width:2; stroke-opacity:0.1; fill:none" points="1352.99,1423.18 1352.99,123.472 "></polyline>
<polyline clip-path="url(#clip332)" style="stroke:#f8f8f2; stroke-linecap:round; stroke-linejoin:round; stroke-width:2; stroke-opacity:0.1; fill:none" points="1755.58,1423.18 1755.58,123.472 "></polyline>
<polyline clip-path="url(#clip332)" style="stroke:#f8f8f2; stroke-linecap:round; stroke-linejoin:round; stroke-width:2; stroke-opacity:0.1; fill:none" points="2158.17,1423.18 2158.17,123.472 "></polyline>
<polyline clip-path="url(#clip330)" style="stroke:#f8f8f2; stroke-linecap:round; stroke-linejoin:round; stroke-width:4; stroke-opacity:1; fill:none" points="219.033,1423.18 2352.76,1423.18 "></polyline>
<polyline clip-path="url(#clip330)" style="stroke:#f8f8f2; stroke-linecap:round; stroke-linejoin:round; stroke-width:4; stroke-opacity:1; fill:none" points="547.814,1423.18 547.814,1404.28 "></polyline>
<polyline clip-path="url(#clip330)" style="stroke:#f8f8f2; stroke-linecap:round; stroke-linejoin:round; stroke-width:4; stroke-opacity:1; fill:none" points="950.403,1423.18 950.403,1404.28 "></polyline>
<polyline clip-path="url(#clip330)" style="stroke:#f8f8f2; stroke-linecap:round; stroke-linejoin:round; stroke-width:4; stroke-opacity:1; fill:none" points="1352.99,1423.18 1352.99,1404.28 "></polyline>
<polyline clip-path="url(#clip330)" style="stroke:#f8f8f2; stroke-linecap:round; stroke-linejoin:round; stroke-width:4; stroke-opacity:1; fill:none" points="1755.58,1423.18 1755.58,1404.28 "></polyline>
<polyline clip-path="url(#clip330)" style="stroke:#f8f8f2; stroke-linecap:round; stroke-linejoin:round; stroke-width:4; stroke-opacity:1; fill:none" points="2158.17,1423.18 2158.17,1404.28 "></polyline>
<path clip-path="url(#clip330)" d="M552.062 1466.95 Q555.418 1467.66 557.293 1469.93 Q559.191 1472.2 559.191 1475.53 Q559.191 1480.65 555.673 1483.45 Q552.154 1486.25 545.673 1486.25 Q543.497 1486.25 541.182 1485.81 Q538.891 1485.39 536.437 1484.54 L536.437 1480.02 Q538.381 1481.16 540.696 1481.74 Q543.011 1482.32 545.534 1482.32 Q549.932 1482.32 552.224 1480.58 Q554.539 1478.84 554.539 1475.53 Q554.539 1472.48 552.386 1470.77 Q550.256 1469.03 546.437 1469.03 L542.409 1469.03 L542.409 1465.19 L546.622 1465.19 Q550.071 1465.19 551.9 1463.82 Q553.728 1462.43 553.728 1459.84 Q553.728 1457.18 551.83 1455.77 Q549.955 1454.33 546.437 1454.33 Q544.516 1454.33 542.316 1454.75 Q540.117 1455.16 537.479 1456.04 L537.479 1451.88 Q540.141 1451.14 542.455 1450.77 Q544.793 1450.39 546.854 1450.39 Q552.178 1450.39 555.279 1452.83 Q558.381 1455.23 558.381 1459.35 Q558.381 1462.22 556.738 1464.21 Q555.094 1466.18 552.062 1466.95 Z" fill="#f8f8f2" fill-rule="nonzero" fill-opacity="1"></path><path clip-path="url(#clip330)" d="M950.808 1466.44 Q947.66 1466.44 945.809 1468.59 Q943.98 1470.74 943.98 1474.49 Q943.98 1478.22 945.809 1480.39 Q947.66 1482.55 950.808 1482.55 Q953.957 1482.55 955.785 1480.39 Q957.637 1478.22 957.637 1474.49 Q957.637 1470.74 955.785 1468.59 Q953.957 1466.44 950.808 1466.44 M960.091 1451.78 L960.091 1456.04 Q958.332 1455.21 956.526 1454.77 Q954.744 1454.33 952.984 1454.33 Q948.355 1454.33 945.901 1457.45 Q943.471 1460.58 943.123 1466.9 Q944.489 1464.89 946.549 1463.82 Q948.609 1462.73 951.086 1462.73 Q956.295 1462.73 959.304 1465.9 Q962.336 1469.05 962.336 1474.49 Q962.336 1479.82 959.188 1483.03 Q956.04 1486.25 950.808 1486.25 Q944.813 1486.25 941.642 1481.67 Q938.471 1477.06 938.471 1468.33 Q938.471 1460.14 942.359 1455.28 Q946.248 1450.39 952.799 1450.39 Q954.558 1450.39 956.341 1450.74 Q958.146 1451.09 960.091 1451.78 Z" fill="#f8f8f2" fill-rule="nonzero" fill-opacity="1"></path><path clip-path="url(#clip330)" d="M1343.29 1484.86 L1343.29 1480.6 Q1345.05 1481.44 1346.86 1481.88 Q1348.66 1482.32 1350.4 1482.32 Q1355.03 1482.32 1357.46 1479.21 Q1359.91 1476.09 1360.26 1469.75 Q1358.92 1471.74 1356.86 1472.8 Q1354.8 1473.87 1352.3 1473.87 Q1347.11 1473.87 1344.08 1470.74 Q1341.07 1467.59 1341.07 1462.15 Q1341.07 1456.83 1344.22 1453.61 Q1347.37 1450.39 1352.6 1450.39 Q1358.59 1450.39 1361.74 1455 Q1364.91 1459.58 1364.91 1468.33 Q1364.91 1476.51 1361.02 1481.39 Q1357.16 1486.25 1350.61 1486.25 Q1348.85 1486.25 1347.04 1485.9 Q1345.24 1485.56 1343.29 1484.86 M1352.6 1470.21 Q1355.75 1470.21 1357.58 1468.06 Q1359.43 1465.9 1359.43 1462.15 Q1359.43 1458.43 1357.58 1456.27 Q1355.75 1454.1 1352.6 1454.1 Q1349.45 1454.1 1347.6 1456.27 Q1345.77 1458.43 1345.77 1462.15 Q1345.77 1465.9 1347.6 1468.06 Q1349.45 1470.21 1352.6 1470.21 Z" fill="#f8f8f2" fill-rule="nonzero" fill-opacity="1"></path><path clip-path="url(#clip330)" d="M1731.07 1481.64 L1738.71 1481.64 L1738.71 1455.28 L1730.4 1456.95 L1730.4 1452.69 L1738.66 1451.02 L1743.34 1451.02 L1743.34 1481.64 L1750.98 1481.64 L1750.98 1485.58 L1731.07 1485.58 L1731.07 1481.64 Z" fill="#f8f8f2" fill-rule="nonzero" fill-opacity="1"></path><path clip-path="url(#clip330)" d="M1764.45 1481.64 L1780.77 1481.64 L1780.77 1485.58 L1758.82 1485.58 L1758.82 1481.64 Q1761.48 1478.89 1766.07 1474.26 Q1770.67 1469.61 1771.85 1468.27 Q1774.1 1465.74 1774.98 1464.01 Q1775.88 1462.25 1775.88 1460.56 Q1775.88 1457.8 1773.94 1456.07 Q1772.02 1454.33 1768.92 1454.33 Q1766.72 1454.33 1764.26 1455.09 Q1761.83 1455.86 1759.05 1457.41 L1759.05 1452.69 Q1761.88 1451.55 1764.33 1450.97 Q1766.79 1450.39 1768.82 1450.39 Q1774.19 1450.39 1777.39 1453.08 Q1780.58 1455.77 1780.58 1460.26 Q1780.58 1462.39 1779.77 1464.31 Q1778.98 1466.2 1776.88 1468.8 Q1776.3 1469.47 1773.2 1472.69 Q1770.1 1475.88 1764.45 1481.64 Z" fill="#f8f8f2" fill-rule="nonzero" fill-opacity="1"></path><path clip-path="url(#clip330)" d="M2133.36 1481.64 L2141 1481.64 L2141 1455.28 L2132.69 1456.95 L2132.69 1452.69 L2140.95 1451.02 L2145.62 1451.02 L2145.62 1481.64 L2153.26 1481.64 L2153.26 1485.58 L2133.36 1485.58 L2133.36 1481.64 Z" fill="#f8f8f2" fill-rule="nonzero" fill-opacity="1"></path><path clip-path="url(#clip330)" d="M2162.75 1451.02 L2181.11 1451.02 L2181.11 1454.96 L2167.04 1454.96 L2167.04 1463.43 Q2168.06 1463.08 2169.07 1462.92 Q2170.09 1462.73 2171.11 1462.73 Q2176.9 1462.73 2180.28 1465.9 Q2183.66 1469.08 2183.66 1474.49 Q2183.66 1480.07 2180.18 1483.17 Q2176.71 1486.25 2170.39 1486.25 Q2168.22 1486.25 2165.95 1485.88 Q2163.7 1485.51 2161.3 1484.77 L2161.3 1480.07 Q2163.38 1481.2 2165.6 1481.76 Q2167.82 1482.32 2170.3 1482.32 Q2174.31 1482.32 2176.64 1480.21 Q2178.98 1478.1 2178.98 1474.49 Q2178.98 1470.88 2176.64 1468.77 Q2174.31 1466.67 2170.3 1466.67 Q2168.43 1466.67 2166.55 1467.08 Q2164.7 1467.5 2162.75 1468.38 L2162.75 1451.02 Z" fill="#f8f8f2" fill-rule="nonzero" fill-opacity="1"></path><path clip-path="url(#clip330)" d="M1224.24 1548.76 L1224.24 1551.62 L1197.32 1551.62 Q1197.7 1557.67 1200.94 1560.85 Q1204.22 1564 1210.05 1564 Q1213.42 1564 1216.57 1563.17 Q1219.75 1562.35 1222.87 1560.69 L1222.87 1566.23 Q1219.72 1567.57 1216.41 1568.27 Q1213.1 1568.97 1209.7 1568.97 Q1201.17 1568.97 1196.17 1564 Q1191.2 1559.04 1191.2 1550.57 Q1191.2 1541.82 1195.92 1536.69 Q1200.66 1531.54 1208.68 1531.54 Q1215.87 1531.54 1220.04 1536.18 Q1224.24 1540.8 1224.24 1548.76 M1218.39 1547.04 Q1218.32 1542.23 1215.68 1539.37 Q1213.07 1536.5 1208.74 1536.5 Q1203.84 1536.5 1200.88 1539.27 Q1197.95 1542.04 1197.51 1547.07 L1218.39 1547.04 Z" fill="#f8f8f2" fill-rule="nonzero" fill-opacity="1"></path><path clip-path="url(#clip330)" d="M1239.52 1562.7 L1239.52 1581.6 L1233.63 1581.6 L1233.63 1532.4 L1239.52 1532.4 L1239.52 1537.81 Q1241.37 1534.62 1244.17 1533.1 Q1247 1531.54 1250.91 1531.54 Q1257.41 1531.54 1261.45 1536.69 Q1265.52 1541.85 1265.52 1550.25 Q1265.52 1558.65 1261.45 1563.81 Q1257.41 1568.97 1250.91 1568.97 Q1247 1568.97 1244.17 1567.44 Q1241.37 1565.88 1239.52 1562.7 M1259.44 1550.25 Q1259.44 1543.79 1256.77 1540.13 Q1254.13 1536.44 1249.48 1536.44 Q1244.84 1536.44 1242.16 1540.13 Q1239.52 1543.79 1239.52 1550.25 Q1239.52 1556.71 1242.16 1560.4 Q1244.84 1564.07 1249.48 1564.07 Q1254.13 1564.07 1256.77 1560.4 Q1259.44 1556.71 1259.44 1550.25 Z" fill="#f8f8f2" fill-rule="nonzero" fill-opacity="1"></path><path clip-path="url(#clip330)" d="M1289.05 1536.5 Q1284.33 1536.5 1281.6 1540.19 Q1278.86 1543.85 1278.86 1550.25 Q1278.86 1556.65 1281.57 1560.34 Q1284.3 1564 1289.05 1564 Q1293.72 1564 1296.46 1560.31 Q1299.2 1556.62 1299.2 1550.25 Q1299.2 1543.92 1296.46 1540.23 Q1293.72 1536.5 1289.05 1536.5 M1289.05 1531.54 Q1296.68 1531.54 1301.04 1536.5 Q1305.41 1541.47 1305.41 1550.25 Q1305.41 1559 1301.04 1564 Q1296.68 1568.97 1289.05 1568.97 Q1281.37 1568.97 1277.01 1564 Q1272.69 1559 1272.69 1550.25 Q1272.69 1541.47 1277.01 1536.5 Q1281.37 1531.54 1289.05 1531.54 Z" fill="#f8f8f2" fill-rule="nonzero" fill-opacity="1"></path><path clip-path="url(#clip330)" d="M1340.77 1533.76 L1340.77 1539.24 Q1338.28 1537.87 1335.77 1537.2 Q1333.29 1536.5 1330.74 1536.5 Q1325.04 1536.5 1321.89 1540.13 Q1318.74 1543.73 1318.74 1550.25 Q1318.74 1556.78 1321.89 1560.4 Q1325.04 1564 1330.74 1564 Q1333.29 1564 1335.77 1563.33 Q1338.28 1562.63 1340.77 1561.26 L1340.77 1566.68 Q1338.32 1567.82 1335.67 1568.39 Q1333.06 1568.97 1330.1 1568.97 Q1322.05 1568.97 1317.31 1563.91 Q1312.57 1558.85 1312.57 1550.25 Q1312.57 1541.53 1317.34 1536.53 Q1322.15 1531.54 1330.49 1531.54 Q1333.19 1531.54 1335.77 1532.11 Q1338.35 1532.65 1340.77 1533.76 Z" fill="#f8f8f2" fill-rule="nonzero" fill-opacity="1"></path><path clip-path="url(#clip330)" d="M1380.58 1546.53 L1380.58 1568.04 L1374.73 1568.04 L1374.73 1546.72 Q1374.73 1541.66 1372.75 1539.14 Q1370.78 1536.63 1366.83 1536.63 Q1362.09 1536.63 1359.35 1539.65 Q1356.62 1542.68 1356.62 1547.9 L1356.62 1568.04 L1350.73 1568.04 L1350.73 1518.52 L1356.62 1518.52 L1356.62 1537.93 Q1358.72 1534.72 1361.55 1533.13 Q1364.42 1531.54 1368.14 1531.54 Q1374.28 1531.54 1377.43 1535.36 Q1380.58 1539.14 1380.58 1546.53 Z" fill="#f8f8f2" fill-rule="nonzero" fill-opacity="1"></path><polyline clip-path="url(#clip332)" style="stroke:#f8f8f2; stroke-linecap:round; stroke-linejoin:round; stroke-width:2; stroke-opacity:0.1; fill:none" points="219.033,1286.3 2352.76,1286.3 "></polyline>
<polyline clip-path="url(#clip332)" style="stroke:#f8f8f2; stroke-linecap:round; stroke-linejoin:round; stroke-width:2; stroke-opacity:0.1; fill:none" points="219.033,937.712 2352.76,937.712 "></polyline>
<polyline clip-path="url(#clip332)" style="stroke:#f8f8f2; stroke-linecap:round; stroke-linejoin:round; stroke-width:2; stroke-opacity:0.1; fill:none" points="219.033,589.126 2352.76,589.126 "></polyline>
<polyline clip-path="url(#clip332)" style="stroke:#f8f8f2; stroke-linecap:round; stroke-linejoin:round; stroke-width:2; stroke-opacity:0.1; fill:none" points="219.033,240.54 2352.76,240.54 "></polyline>
<polyline clip-path="url(#clip330)" style="stroke:#f8f8f2; stroke-linecap:round; stroke-linejoin:round; stroke-width:4; stroke-opacity:1; fill:none" points="219.033,1423.18 219.033,123.472 "></polyline>
<polyline clip-path="url(#clip330)" style="stroke:#f8f8f2; stroke-linecap:round; stroke-linejoin:round; stroke-width:4; stroke-opacity:1; fill:none" points="219.033,1286.3 237.931,1286.3 "></polyline>
<polyline clip-path="url(#clip330)" style="stroke:#f8f8f2; stroke-linecap:round; stroke-linejoin:round; stroke-width:4; stroke-opacity:1; fill:none" points="219.033,937.712 237.931,937.712 "></polyline>
<polyline clip-path="url(#clip330)" style="stroke:#f8f8f2; stroke-linecap:round; stroke-linejoin:round; stroke-width:4; stroke-opacity:1; fill:none" points="219.033,589.126 237.931,589.126 "></polyline>
<polyline clip-path="url(#clip330)" style="stroke:#f8f8f2; stroke-linecap:round; stroke-linejoin:round; stroke-width:4; stroke-opacity:1; fill:none" points="219.033,240.54 237.931,240.54 "></polyline>
<path clip-path="url(#clip330)" d="M116.668 1299.64 L124.306 1299.64 L124.306 1273.28 L115.996 1274.94 L115.996 1270.68 L124.26 1269.02 L128.936 1269.02 L128.936 1299.64 L136.575 1299.64 L136.575 1303.58 L116.668 1303.58 L116.668 1299.64 Z" fill="#f8f8f2" fill-rule="nonzero" fill-opacity="1"></path><path clip-path="url(#clip330)" d="M146.019 1297.7 L150.903 1297.7 L150.903 1303.58 L146.019 1303.58 L146.019 1297.7 Z" fill="#f8f8f2" fill-rule="nonzero" fill-opacity="1"></path><path clip-path="url(#clip330)" d="M171.089 1272.1 Q167.477 1272.1 165.649 1275.66 Q163.843 1279.2 163.843 1286.33 Q163.843 1293.44 165.649 1297 Q167.477 1300.55 171.089 1300.55 Q174.723 1300.55 176.528 1297 Q178.357 1293.44 178.357 1286.33 Q178.357 1279.2 176.528 1275.66 Q174.723 1272.1 171.089 1272.1 M171.089 1268.39 Q176.899 1268.39 179.954 1273 Q183.033 1277.58 183.033 1286.33 Q183.033 1295.06 179.954 1299.67 Q176.899 1304.25 171.089 1304.25 Q165.278 1304.25 162.2 1299.67 Q159.144 1295.06 159.144 1286.33 Q159.144 1277.58 162.2 1273 Q165.278 1268.39 171.089 1268.39 Z" fill="#f8f8f2" fill-rule="nonzero" fill-opacity="1"></path><path clip-path="url(#clip330)" d="M117.663 951.057 L125.302 951.057 L125.302 924.691 L116.992 926.358 L116.992 922.099 L125.255 920.432 L129.931 920.432 L129.931 951.057 L137.57 951.057 L137.57 954.992 L117.663 954.992 L117.663 951.057 Z" fill="#f8f8f2" fill-rule="nonzero" fill-opacity="1"></path><path clip-path="url(#clip330)" d="M147.015 949.113 L151.899 949.113 L151.899 954.992 L147.015 954.992 L147.015 949.113 Z" fill="#f8f8f2" fill-rule="nonzero" fill-opacity="1"></path><path clip-path="url(#clip330)" d="M162.13 920.432 L180.487 920.432 L180.487 924.367 L166.413 924.367 L166.413 932.839 Q167.431 932.492 168.45 932.33 Q169.468 932.145 170.487 932.145 Q176.274 932.145 179.653 935.316 Q183.033 938.488 183.033 943.904 Q183.033 949.483 179.561 952.585 Q176.089 955.663 169.769 955.663 Q167.593 955.663 165.325 955.293 Q163.079 954.923 160.672 954.182 L160.672 949.483 Q162.755 950.617 164.977 951.173 Q167.2 951.728 169.677 951.728 Q173.681 951.728 176.019 949.622 Q178.357 947.515 178.357 943.904 Q178.357 940.293 176.019 938.187 Q173.681 936.08 169.677 936.08 Q167.802 936.08 165.927 936.497 Q164.075 936.913 162.13 937.793 L162.13 920.432 Z" fill="#f8f8f2" fill-rule="nonzero" fill-opacity="1"></path><path clip-path="url(#clip330)" d="M119.885 602.471 L136.204 602.471 L136.204 606.406 L114.26 606.406 L114.26 602.471 Q116.922 599.716 121.505 595.087 Q126.112 590.434 127.292 589.091 Q129.538 586.568 130.417 584.832 Q131.32 583.073 131.32 581.383 Q131.32 578.628 129.376 576.892 Q127.455 575.156 124.353 575.156 Q122.154 575.156 119.7 575.92 Q117.269 576.684 114.492 578.235 L114.492 573.513 Q117.316 572.378 119.769 571.8 Q122.223 571.221 124.26 571.221 Q129.63 571.221 132.825 573.906 Q136.019 576.591 136.019 581.082 Q136.019 583.212 135.209 585.133 Q134.422 587.031 132.316 589.624 Q131.737 590.295 128.635 593.513 Q125.533 596.707 119.885 602.471 Z" fill="#f8f8f2" fill-rule="nonzero" fill-opacity="1"></path><path clip-path="url(#clip330)" d="M146.019 600.526 L150.903 600.526 L150.903 606.406 L146.019 606.406 L146.019 600.526 Z" fill="#f8f8f2" fill-rule="nonzero" fill-opacity="1"></path><path clip-path="url(#clip330)" d="M171.089 574.925 Q167.477 574.925 165.649 578.489 Q163.843 582.031 163.843 589.161 Q163.843 596.267 165.649 599.832 Q167.477 603.374 171.089 603.374 Q174.723 603.374 176.528 599.832 Q178.357 596.267 178.357 589.161 Q178.357 582.031 176.528 578.489 Q174.723 574.925 171.089 574.925 M171.089 571.221 Q176.899 571.221 179.954 575.827 Q183.033 580.411 183.033 589.161 Q183.033 597.888 179.954 602.494 Q176.899 607.077 171.089 607.077 Q165.278 607.077 162.2 602.494 Q159.144 597.888 159.144 589.161 Q159.144 580.411 162.2 575.827 Q165.278 571.221 171.089 571.221 Z" fill="#f8f8f2" fill-rule="nonzero" fill-opacity="1"></path><path clip-path="url(#clip330)" d="M120.88 253.885 L137.2 253.885 L137.2 257.82 L115.256 257.82 L115.256 253.885 Q117.918 251.13 122.501 246.5 Q127.107 241.848 128.288 240.505 Q130.533 237.982 131.413 236.246 Q132.316 234.487 132.316 232.797 Q132.316 230.042 130.371 228.306 Q128.45 226.57 125.348 226.57 Q123.149 226.57 120.695 227.334 Q118.265 228.098 115.487 229.649 L115.487 224.927 Q118.311 223.792 120.765 223.214 Q123.218 222.635 125.255 222.635 Q130.626 222.635 133.82 225.32 Q137.015 228.005 137.015 232.496 Q137.015 234.626 136.204 236.547 Q135.417 238.445 133.311 241.038 Q132.732 241.709 129.63 244.926 Q126.529 248.121 120.88 253.885 Z" fill="#f8f8f2" fill-rule="nonzero" fill-opacity="1"></path><path clip-path="url(#clip330)" d="M147.015 251.94 L151.899 251.94 L151.899 257.82 L147.015 257.82 L147.015 251.94 Z" fill="#f8f8f2" fill-rule="nonzero" fill-opacity="1"></path><path clip-path="url(#clip330)" d="M162.13 223.26 L180.487 223.26 L180.487 227.195 L166.413 227.195 L166.413 235.667 Q167.431 235.32 168.45 235.158 Q169.468 234.973 170.487 234.973 Q176.274 234.973 179.653 238.144 Q183.033 241.315 183.033 246.732 Q183.033 252.311 179.561 255.412 Q176.089 258.491 169.769 258.491 Q167.593 258.491 165.325 258.121 Q163.079 257.75 160.672 257.01 L160.672 252.311 Q162.755 253.445 164.977 254 Q167.2 254.556 169.677 254.556 Q173.681 254.556 176.019 252.45 Q178.357 250.343 178.357 246.732 Q178.357 243.121 176.019 241.014 Q173.681 238.908 169.677 238.908 Q167.802 238.908 165.927 239.325 Q164.075 239.741 162.13 240.621 L162.13 223.26 Z" fill="#f8f8f2" fill-rule="nonzero" fill-opacity="1"></path><path clip-path="url(#clip330)" d="M14.479 831.62 L14.479 825.763 L64.0042 825.763 L64.0042 831.62 L14.479 831.62 Z" fill="#f8f8f2" fill-rule="nonzero" fill-opacity="1"></path><path clip-path="url(#clip330)" d="M32.4621 799.696 Q32.4621 804.407 36.1542 807.144 Q39.8145 809.881 46.212 809.881 Q52.6095 809.881 56.3017 807.176 Q59.9619 804.438 59.9619 799.696 Q59.9619 795.017 56.2698 792.28 Q52.5777 789.543 46.212 789.543 Q39.8781 789.543 36.186 792.28 Q32.4621 795.017 32.4621 799.696 M27.4968 799.696 Q27.4968 792.057 32.4621 787.697 Q37.4273 783.336 46.212 783.336 Q54.9649 783.336 59.9619 787.697 Q64.9272 792.057 64.9272 799.696 Q64.9272 807.367 59.9619 811.727 Q54.9649 816.056 46.212 816.056 Q37.4273 816.056 32.4621 811.727 Q27.4968 807.367 27.4968 799.696 Z" fill="#f8f8f2" fill-rule="nonzero" fill-opacity="1"></path><path clip-path="url(#clip330)" d="M29.4065 750.903 L34.9447 750.903 Q33.6716 753.385 33.035 756.059 Q32.3984 758.733 32.3984 761.597 Q32.3984 765.958 33.7352 768.154 Q35.072 770.318 37.7456 770.318 Q39.7826 770.318 40.9603 768.759 Q42.1061 767.199 43.1565 762.488 L43.6021 760.483 Q44.9389 754.245 47.3897 751.635 Q49.8086 748.993 54.1691 748.993 Q59.1344 748.993 62.0308 752.94 Q64.9272 756.855 64.9272 763.73 Q64.9272 766.594 64.3543 769.713 Q63.8132 772.801 62.6992 776.238 L56.6518 776.238 Q58.3387 772.992 59.198 769.841 Q60.0256 766.69 60.0256 763.602 Q60.0256 759.465 58.6251 757.237 Q57.1929 755.009 54.6147 755.009 Q52.2276 755.009 50.9545 756.632 Q49.6813 758.223 48.5037 763.666 L48.0262 765.703 Q46.8804 771.146 44.5251 773.565 Q42.138 775.984 38.0002 775.984 Q32.9713 775.984 30.2341 772.419 Q27.4968 768.854 27.4968 762.297 Q27.4968 759.051 27.9743 756.186 Q28.4517 753.322 29.4065 750.903 Z" fill="#f8f8f2" fill-rule="nonzero" fill-opacity="1"></path><path clip-path="url(#clip330)" d="M29.4065 716.942 L34.9447 716.942 Q33.6716 719.424 33.035 722.098 Q32.3984 724.772 32.3984 727.636 Q32.3984 731.997 33.7352 734.193 Q35.072 736.357 37.7456 736.357 Q39.7826 736.357 40.9603 734.798 Q42.1061 733.238 43.1565 728.527 L43.6021 726.522 Q44.9389 720.284 47.3897 717.674 Q49.8086 715.032 54.1691 715.032 Q59.1344 715.032 62.0308 718.979 Q64.9272 722.894 64.9272 729.769 Q64.9272 732.633 64.3543 735.752 Q63.8132 738.84 62.6992 742.277 L56.6518 742.277 Q58.3387 739.031 59.198 735.88 Q60.0256 732.729 60.0256 729.641 Q60.0256 725.504 58.6251 723.276 Q57.1929 721.048 54.6147 721.048 Q52.2276 721.048 50.9545 722.671 Q49.6813 724.262 48.5037 729.705 L48.0262 731.742 Q46.8804 737.185 44.5251 739.604 Q42.138 742.023 38.0002 742.023 Q32.9713 742.023 30.2341 738.458 Q27.4968 734.893 27.4968 728.336 Q27.4968 725.09 27.9743 722.225 Q28.4517 719.361 29.4065 716.942 Z" fill="#f8f8f2" fill-rule="nonzero" fill-opacity="1"></path><path clip-path="url(#clip330)" d="M1063.6 9.54393 L1071.05 9.54393 L1071.05 72.576 L1063.6 72.576 L1063.6 9.54393 Z" fill="#f8f8f2" fill-rule="nonzero" fill-opacity="1"></path><path clip-path="url(#clip330)" d="M1104.23 32.4315 Q1098.24 32.4315 1094.75 37.1306 Q1091.27 41.7891 1091.27 49.9314 Q1091.27 58.0738 1094.71 62.7728 Q1098.2 67.4314 1104.23 67.4314 Q1110.19 67.4314 1113.67 62.7323 Q1117.15 58.0333 1117.15 49.9314 Q1117.15 41.8701 1113.67 37.1711 Q1110.19 32.4315 1104.23 32.4315 M1104.23 26.1121 Q1113.95 26.1121 1119.5 32.4315 Q1125.05 38.7509 1125.05 49.9314 Q1125.05 61.0714 1119.5 67.4314 Q1113.95 73.7508 1104.23 73.7508 Q1094.47 73.7508 1088.92 67.4314 Q1083.41 61.0714 1083.41 49.9314 Q1083.41 38.7509 1088.92 32.4315 Q1094.47 26.1121 1104.23 26.1121 Z" fill="#f8f8f2" fill-rule="nonzero" fill-opacity="1"></path><path clip-path="url(#clip330)" d="M1166.33 28.5427 L1166.33 35.5912 Q1163.17 33.9709 1159.77 33.1607 Q1156.37 32.3505 1152.72 32.3505 Q1147.17 32.3505 1144.38 34.0519 Q1141.62 35.7533 1141.62 39.156 Q1141.62 41.7486 1143.61 43.2475 Q1145.59 44.7058 1151.59 46.0426 L1154.14 46.6097 Q1162.08 48.3111 1165.4 51.4303 Q1168.76 54.509 1168.76 60.0587 Q1168.76 66.3781 1163.74 70.0644 Q1158.76 73.7508 1150.01 73.7508 Q1146.36 73.7508 1142.39 73.0216 Q1138.46 72.3329 1134.09 70.9151 L1134.09 63.2184 Q1138.22 65.3654 1142.23 66.4591 Q1146.24 67.5124 1150.17 67.5124 Q1155.44 67.5124 1158.27 65.73 Q1161.11 63.9071 1161.11 60.6258 Q1161.11 57.5877 1159.04 55.9673 Q1157.01 54.3469 1150.09 52.8481 L1147.5 52.2405 Q1140.57 50.7821 1137.49 47.7845 Q1134.41 44.7463 1134.41 39.4801 Q1134.41 33.0797 1138.95 29.5959 Q1143.48 26.1121 1151.83 26.1121 Q1155.96 26.1121 1159.61 26.7198 Q1163.25 27.3274 1166.33 28.5427 Z" fill="#f8f8f2" fill-rule="nonzero" fill-opacity="1"></path><path clip-path="url(#clip330)" d="M1209.56 28.5427 L1209.56 35.5912 Q1206.4 33.9709 1202.99 33.1607 Q1199.59 32.3505 1195.94 32.3505 Q1190.39 32.3505 1187.6 34.0519 Q1184.84 35.7533 1184.84 39.156 Q1184.84 41.7486 1186.83 43.2475 Q1188.81 44.7058 1194.81 46.0426 L1197.36 46.6097 Q1205.3 48.3111 1208.62 51.4303 Q1211.99 54.509 1211.99 60.0587 Q1211.99 66.3781 1206.96 70.0644 Q1201.98 73.7508 1193.23 73.7508 Q1189.58 73.7508 1185.61 73.0216 Q1181.68 72.3329 1177.31 70.9151 L1177.31 63.2184 Q1181.44 65.3654 1185.45 66.4591 Q1189.46 67.5124 1193.39 67.5124 Q1198.66 67.5124 1201.49 65.73 Q1204.33 63.9071 1204.33 60.6258 Q1204.33 57.5877 1202.26 55.9673 Q1200.24 54.3469 1193.31 52.8481 L1190.72 52.2405 Q1183.79 50.7821 1180.71 47.7845 Q1177.63 44.7463 1177.63 39.4801 Q1177.63 33.0797 1182.17 29.5959 Q1186.71 26.1121 1195.05 26.1121 Q1199.18 26.1121 1202.83 26.7198 Q1206.48 27.3274 1209.56 28.5427 Z" fill="#f8f8f2" fill-rule="nonzero" fill-opacity="1"></path><path clip-path="url(#clip330)" d="M1244.88 27.2059 L1252.78 27.2059 L1266.96 65.2844 L1281.13 27.2059 L1289.03 27.2059 L1272.02 72.576 L1261.89 72.576 L1244.88 27.2059 Z" fill="#f8f8f2" fill-rule="nonzero" fill-opacity="1"></path><path clip-path="url(#clip330)" d="M1319.94 49.7694 Q1310.91 49.7694 1307.42 51.8354 Q1303.94 53.9013 1303.94 58.8839 Q1303.94 62.8538 1306.53 65.2034 Q1309.17 67.5124 1313.66 67.5124 Q1319.86 67.5124 1323.59 63.1374 Q1327.36 58.7219 1327.36 51.4303 L1327.36 49.7694 L1319.94 49.7694 M1334.81 46.6907 L1334.81 72.576 L1327.36 72.576 L1327.36 65.6895 Q1324.8 69.8214 1321 71.8063 Q1317.19 73.7508 1311.68 73.7508 Q1304.71 73.7508 1300.58 69.8619 Q1296.49 65.9325 1296.49 59.3701 Q1296.49 51.7138 1301.59 47.825 Q1306.74 43.9361 1316.9 43.9361 L1327.36 43.9361 L1327.36 43.2069 Q1327.36 38.0623 1323.95 35.2672 Q1320.59 32.4315 1314.47 32.4315 Q1310.58 32.4315 1306.9 33.3632 Q1303.21 34.295 1299.81 36.1584 L1299.81 29.2718 Q1303.9 27.692 1307.75 26.9223 Q1311.6 26.1121 1315.24 26.1121 Q1325.09 26.1121 1329.95 31.2163 Q1334.81 36.3204 1334.81 46.6907 Z" fill="#f8f8f2" fill-rule="nonzero" fill-opacity="1"></path><path clip-path="url(#clip330)" d="M1350.16 9.54393 L1357.62 9.54393 L1357.62 72.576 L1350.16 72.576 L1350.16 9.54393 Z" fill="#f8f8f2" fill-rule="nonzero" fill-opacity="1"></path><path clip-path="url(#clip330)" d="M1372.44 54.671 L1372.44 27.2059 L1379.9 27.2059 L1379.9 54.3874 Q1379.9 60.8284 1382.41 64.0691 Q1384.92 67.2693 1389.94 67.2693 Q1395.98 67.2693 1399.46 63.421 Q1402.99 59.5726 1402.99 52.9291 L1402.99 27.2059 L1410.44 27.2059 L1410.44 72.576 L1402.99 72.576 L1402.99 65.6084 Q1400.27 69.7404 1396.67 71.7658 Q1393.1 73.7508 1388.36 73.7508 Q1380.54 73.7508 1376.49 68.8897 Q1372.44 64.0286 1372.44 54.671 M1391.2 26.1121 L1391.2 26.1121 Z" fill="#f8f8f2" fill-rule="nonzero" fill-opacity="1"></path><path clip-path="url(#clip330)" d="M1464.6 48.0275 L1464.6 51.6733 L1430.33 51.6733 Q1430.82 59.3701 1434.95 63.421 Q1439.12 67.4314 1446.53 67.4314 Q1450.83 67.4314 1454.84 66.3781 Q1458.89 65.3249 1462.86 63.2184 L1462.86 70.267 Q1458.85 71.9684 1454.63 72.8596 Q1450.42 73.7508 1446.09 73.7508 Q1435.23 73.7508 1428.87 67.4314 Q1422.55 61.1119 1422.55 50.3365 Q1422.55 39.1965 1428.55 32.6746 Q1434.58 26.1121 1444.79 26.1121 Q1453.95 26.1121 1459.25 32.0264 Q1464.6 37.9003 1464.6 48.0275 M1457.15 45.84 Q1457.07 39.7232 1453.7 36.0774 Q1450.38 32.4315 1444.87 32.4315 Q1438.63 32.4315 1434.87 35.9558 Q1431.14 39.4801 1430.57 45.8805 L1457.15 45.84 Z" fill="#f8f8f2" fill-rule="nonzero" fill-opacity="1"></path><path clip-path="url(#clip330)" d="M1505.76 28.5427 L1505.76 35.5912 Q1502.6 33.9709 1499.19 33.1607 Q1495.79 32.3505 1492.15 32.3505 Q1486.6 32.3505 1483.8 34.0519 Q1481.05 35.7533 1481.05 39.156 Q1481.05 41.7486 1483.03 43.2475 Q1485.02 44.7058 1491.01 46.0426 L1493.56 46.6097 Q1501.5 48.3111 1504.83 51.4303 Q1508.19 54.509 1508.19 60.0587 Q1508.19 66.3781 1503.16 70.0644 Q1498.18 73.7508 1489.43 73.7508 Q1485.79 73.7508 1481.82 73.0216 Q1477.89 72.3329 1473.51 70.9151 L1473.51 63.2184 Q1477.64 65.3654 1481.65 66.4591 Q1485.66 67.5124 1489.59 67.5124 Q1494.86 67.5124 1497.7 65.73 Q1500.53 63.9071 1500.53 60.6258 Q1500.53 57.5877 1498.47 55.9673 Q1496.44 54.3469 1489.51 52.8481 L1486.92 52.2405 Q1479.99 50.7821 1476.91 47.7845 Q1473.84 44.7463 1473.84 39.4801 Q1473.84 33.0797 1478.37 29.5959 Q1482.91 26.1121 1491.26 26.1121 Q1495.39 26.1121 1499.03 26.7198 Q1502.68 27.3274 1505.76 28.5427 Z" fill="#f8f8f2" fill-rule="nonzero" fill-opacity="1"></path><polyline clip-path="url(#clip332)" style="stroke:#8be9fd; stroke-linecap:round; stroke-linejoin:round; stroke-width:4; stroke-opacity:1; fill:none" points="279.421,160.256 413.618,1092.26 547.814,1217.28 682.011,1319.89 816.207,1363.51 950.403,1375.92 1084.6,1378.44 1218.8,1380.68 1352.99,1382.34 1487.19,1383.53 1621.39,1383.02 1755.58,1383.77 1889.78,1384.39 2023.97,1385.03 2158.17,1385.65 2292.37,1386.4 "></polyline>
<polyline clip-path="url(#clip332)" style="stroke:#ff79c6; stroke-linecap:round; stroke-linejoin:round; stroke-width:4; stroke-opacity:1; fill:none" points="279.421,378.992 413.618,928.937 547.814,1104.79 682.011,1252.96 816.207,1326.38 950.403,1356.38 1084.6,1364.76 1218.8,1369.64 1352.99,1372.94 1487.19,1375.33 1621.39,1376.06 1755.58,1377.67 1889.78,1379 2023.97,1380.59 2158.17,1381.82 2292.37,1383.26 "></polyline>
<path clip-path="url(#clip330)" d="M1963.21 322.316 L2281.63 322.316 L2281.63 166.796 L1963.21 166.796  Z" fill="#282a36" fill-rule="evenodd" fill-opacity="1"></path>
<polyline clip-path="url(#clip330)" style="stroke:#f8f8f2; stroke-linecap:round; stroke-linejoin:round; stroke-width:4; stroke-opacity:1; fill:none" points="1963.21,322.316 2281.63,322.316 2281.63,166.796 1963.21,166.796 1963.21,322.316 "></polyline>
<polyline clip-path="url(#clip330)" style="stroke:#8be9fd; stroke-linecap:round; stroke-linejoin:round; stroke-width:4; stroke-opacity:1; fill:none" points="1986.92,218.636 2129.17,218.636 "></polyline>
<path clip-path="url(#clip330)" d="M2160.29 202.629 L2160.29 209.99 L2169.06 209.99 L2169.06 213.3 L2160.29 213.3 L2160.29 227.374 Q2160.29 230.545 2161.14 231.448 Q2162.02 232.351 2164.68 232.351 L2169.06 232.351 L2169.06 235.916 L2164.68 235.916 Q2159.75 235.916 2157.88 234.087 Q2156 232.235 2156 227.374 L2156 213.3 L2152.88 213.3 L2152.88 209.99 L2156 209.99 L2156 202.629 L2160.29 202.629 Z" fill="#f8f8f2" fill-rule="nonzero" fill-opacity="1"></path><path clip-path="url(#clip330)" d="M2189.68 213.971 Q2188.97 213.555 2188.11 213.37 Q2187.28 213.161 2186.26 213.161 Q2182.65 213.161 2180.7 215.522 Q2178.78 217.86 2178.78 222.258 L2178.78 235.916 L2174.5 235.916 L2174.5 209.99 L2178.78 209.99 L2178.78 214.018 Q2180.12 211.657 2182.28 210.522 Q2184.43 209.365 2187.51 209.365 Q2187.95 209.365 2188.48 209.434 Q2189.01 209.481 2189.66 209.596 L2189.68 213.971 Z" fill="#f8f8f2" fill-rule="nonzero" fill-opacity="1"></path><path clip-path="url(#clip330)" d="M2205.93 222.883 Q2200.77 222.883 2198.78 224.064 Q2196.79 225.244 2196.79 228.092 Q2196.79 230.36 2198.27 231.703 Q2199.78 233.022 2202.35 233.022 Q2205.89 233.022 2208.02 230.522 Q2210.17 227.999 2210.17 223.832 L2210.17 222.883 L2205.93 222.883 M2214.43 221.124 L2214.43 235.916 L2210.17 235.916 L2210.17 231.981 Q2208.71 234.342 2206.54 235.476 Q2204.36 236.587 2201.21 236.587 Q2197.23 236.587 2194.87 234.365 Q2192.53 232.119 2192.53 228.369 Q2192.53 223.994 2195.45 221.772 Q2198.39 219.55 2204.2 219.55 L2210.17 219.55 L2210.17 219.133 Q2210.17 216.194 2208.22 214.596 Q2206.3 212.976 2202.81 212.976 Q2200.59 212.976 2198.48 213.508 Q2196.37 214.041 2194.43 215.106 L2194.43 211.17 Q2196.77 210.268 2198.97 209.828 Q2201.16 209.365 2203.25 209.365 Q2208.87 209.365 2211.65 212.282 Q2214.43 215.198 2214.43 221.124 Z" fill="#f8f8f2" fill-rule="nonzero" fill-opacity="1"></path><path clip-path="url(#clip330)" d="M2223.2 209.99 L2227.46 209.99 L2227.46 235.916 L2223.2 235.916 L2223.2 209.99 M2223.2 199.897 L2227.46 199.897 L2227.46 205.291 L2223.2 205.291 L2223.2 199.897 Z" fill="#f8f8f2" fill-rule="nonzero" fill-opacity="1"></path><path clip-path="url(#clip330)" d="M2257.92 220.268 L2257.92 235.916 L2253.66 235.916 L2253.66 220.407 Q2253.66 216.726 2252.23 214.897 Q2250.79 213.069 2247.92 213.069 Q2244.47 213.069 2242.48 215.268 Q2240.49 217.467 2240.49 221.263 L2240.49 235.916 L2236.21 235.916 L2236.21 209.99 L2240.49 209.99 L2240.49 214.018 Q2242.02 211.68 2244.08 210.522 Q2246.16 209.365 2248.87 209.365 Q2253.34 209.365 2255.63 212.143 Q2257.92 214.897 2257.92 220.268 Z" fill="#f8f8f2" fill-rule="nonzero" fill-opacity="1"></path><polyline clip-path="url(#clip330)" style="stroke:#ff79c6; stroke-linecap:round; stroke-linejoin:round; stroke-width:4; stroke-opacity:1; fill:none" points="1986.92,270.476 2129.17,270.476 "></polyline>
<path clip-path="url(#clip330)" d="M2160.29 254.469 L2160.29 261.83 L2169.06 261.83 L2169.06 265.14 L2160.29 265.14 L2160.29 279.214 Q2160.29 282.385 2161.14 283.288 Q2162.02 284.191 2164.68 284.191 L2169.06 284.191 L2169.06 287.756 L2164.68 287.756 Q2159.75 287.756 2157.88 285.927 Q2156 284.075 2156 279.214 L2156 265.14 L2152.88 265.14 L2152.88 261.83 L2156 261.83 L2156 254.469 L2160.29 254.469 Z" fill="#f8f8f2" fill-rule="nonzero" fill-opacity="1"></path><path clip-path="url(#clip330)" d="M2196.84 273.728 L2196.84 275.811 L2177.25 275.811 Q2177.53 280.209 2179.89 282.524 Q2182.28 284.816 2186.51 284.816 Q2188.97 284.816 2191.26 284.214 Q2193.57 283.612 2195.84 282.409 L2195.84 286.436 Q2193.55 287.408 2191.14 287.918 Q2188.73 288.427 2186.26 288.427 Q2180.05 288.427 2176.42 284.816 Q2172.81 281.205 2172.81 275.047 Q2172.81 268.682 2176.23 264.955 Q2179.68 261.205 2185.52 261.205 Q2190.75 261.205 2193.78 264.585 Q2196.84 267.941 2196.84 273.728 M2192.58 272.478 Q2192.53 268.983 2190.61 266.899 Q2188.71 264.816 2185.56 264.816 Q2182 264.816 2179.85 266.83 Q2177.72 268.844 2177.39 272.501 L2192.58 272.478 Z" fill="#f8f8f2" fill-rule="nonzero" fill-opacity="1"></path><path clip-path="url(#clip330)" d="M2220.35 262.594 L2220.35 266.622 Q2218.55 265.696 2216.6 265.233 Q2214.66 264.77 2212.58 264.77 Q2209.41 264.77 2207.81 265.742 Q2206.23 266.714 2206.23 268.659 Q2206.23 270.14 2207.37 270.997 Q2208.5 271.83 2211.93 272.594 L2213.39 272.918 Q2217.92 273.89 2219.82 275.672 Q2221.74 277.432 2221.74 280.603 Q2221.74 284.214 2218.87 286.321 Q2216.03 288.427 2211.03 288.427 Q2208.94 288.427 2206.67 288.01 Q2204.43 287.617 2201.93 286.807 L2201.93 282.409 Q2204.29 283.635 2206.58 284.26 Q2208.87 284.862 2211.12 284.862 Q2214.13 284.862 2215.75 283.844 Q2217.37 282.802 2217.37 280.927 Q2217.37 279.191 2216.19 278.265 Q2215.03 277.339 2211.07 276.483 L2209.59 276.135 Q2205.63 275.302 2203.87 273.589 Q2202.11 271.853 2202.11 268.844 Q2202.11 265.186 2204.71 263.196 Q2207.3 261.205 2212.07 261.205 Q2214.43 261.205 2216.51 261.552 Q2218.6 261.899 2220.35 262.594 Z" fill="#f8f8f2" fill-rule="nonzero" fill-opacity="1"></path><path clip-path="url(#clip330)" d="M2232.74 254.469 L2232.74 261.83 L2241.51 261.83 L2241.51 265.14 L2232.74 265.14 L2232.74 279.214 Q2232.74 282.385 2233.6 283.288 Q2234.47 284.191 2237.14 284.191 L2241.51 284.191 L2241.51 287.756 L2237.14 287.756 Q2232.21 287.756 2230.33 285.927 Q2228.46 284.075 2228.46 279.214 L2228.46 265.14 L2225.33 265.14 L2225.33 261.83 L2228.46 261.83 L2228.46 254.469 L2232.74 254.469 Z" fill="#f8f8f2" fill-rule="nonzero" fill-opacity="1"></path></svg>